#!OML:ASF F:\VICON\USERDATA\INSTALL\rory3\rory3.ASF
:FULLY-SPECIFIED
:DEGREES
3722
root 0.980501 18.2141 6.40352 -1.70738 3.20408 -0.370923
lowerback 8.08856 3.75677 -2.26242
upperback 3.10583 4.79326 -1.34468
thorax -1.37686 2.38767 -0.559729
lowerneck -7.27435 -6.69844 -6.56581
upperneck 5.35822 -9.4221 14.1749
head 3.80017 -4.23886 4.83823
rclavicle -2.78299e-014 -1.03368e-014
rhumerus 5.21548 2.53862 -58.8365
rradius 82.724
rwrist 36.7992
rhand -59.557 -0.909804
rfingers 7.12502
rthumb -31.73 -28.1695
lclavicle -2.78299e-014 -1.03368e-014
lhumerus -30.9741 20.3617 64.5992
lradius 24.1293
lwrist -7.92932
lhand -27.023 26.0852
lfingers 7.12502
lthumb -0.442298 56.0645
rfemur -11.861 12.9015 6.60296
rtibia 38.2956
rfoot -13.2656 -20.1989
rtoes -20.4138
lfemur -12.702 -5.41819 -14.2129
ltibia 37.1336
lfoot -18.8847 8.38142
ltoes -13.3047
3723
root 0.930123 18.2103 6.41076 -1.78724 3.05566 -0.364942
lowerback 8.1618 3.63022 -2.06163
upperback 3.18107 4.64062 -1.3021
thorax -1.32622 2.31198 -0.614363
lowerneck -7.35665 -6.67523 -6.5095
upperneck 5.24566 -9.37804 14.1447
head 3.7716 -4.21782 4.82151
rclavicle 4.42296e-014 -5.96354e-015
rhumerus 4.91627 1.68646 -58.2842
rradius 82.8656
rwrist 36.6032
rhand -59.6964 -0.758731
rfingers 7.12502
rthumb -31.8628 -27.9921
lclavicle 4.42296e-014 -5.96354e-015
lhumerus -30.6342 20.5864 64.3292
lradius 24.5668
lwrist -7.86586
lhand -27.2463 24.791
lfingers 7.12502
lthumb -0.657943 54.7697
rfemur -11.748 12.846 6.84839
rtibia 38.2295
rfoot -13.5573 -20.4006
rtoes -20.6273
lfemur -12.5271 -5.35461 -14.0434
ltibia 37.1018
lfoot -18.9747 8.45126
ltoes -13.3623
3724
root 0.872682 18.2051 6.41274 -1.76088 3.02275 -0.334526
lowerback 8.26789 3.50875 -1.97414
upperback 3.16829 4.48363 -1.22641
thorax -1.39655 2.23392 -0.57798
lowerneck -7.42919 -6.65197 -6.45414
upperneck 5.18136 -9.33406 14.0519
head 3.75244 -4.19811 4.78555
rclavicle 5.36719e-015 1.27222e-014
rhumerus 4.53455 0.908822 -57.6055
rradius 82.9913
rwrist 36.3918
rhand -59.7802 -0.697011
rfingers 7.12502
rthumb -31.9426 -27.9144
lclavicle 5.36719e-015 1.27222e-014
lhumerus -30.3105 20.2382 64.415
lradius 25.3421
lwrist -7.13624
lhand -27.3899 24.8535
lfingers 7.12502
lthumb -0.796671 54.8317
rfemur -11.7024 12.7283 7.05713
rtibia 38.127
rfoot -13.8816 -20.6271
rtoes -20.3461
lfemur -12.5145 -5.35553 -13.8554
ltibia 37.0219
lfoot -18.9197 8.40142
ltoes -13.2036
3725
root 0.815755 18.2054 6.414 -1.63971 2.98317 -0.266574
lowerback 8.28683 3.38663 -1.94258
upperback 3.15261 4.32455 -1.14076
thorax -1.42671 2.15438 -0.494238
lowerneck -7.68673 -6.64919 -6.51343
upperneck 5.19404 -9.31527 14.0324
head 3.79934 -4.18029 4.78292
rclavicle -1.00386e-014 5.56597e-015
rhumerus 4.10007 0.0836556 -56.9677
rradius 83.1879
rwrist 36.1804
rhand -59.604 -0.509756
rfingers 7.12502
rthumb -31.7748 -27.7606
lclavicle -1.00386e-014 5.56597e-015
lhumerus -29.914 19.941 64.5992
lradius 26.1099
lwrist -6.45504
lhand -27.7853 25.8429
lfingers 7.12502
lthumb -1.17857 55.8194
rfemur -11.7436 12.6443 7.19453
rtibia 38.0341
rfoot -14.3218 -20.7846
rtoes -19.7481
lfemur -12.5849 -5.38038 -13.7155
ltibia 36.9169
lfoot -18.8784 8.43768
ltoes -13.2946
3726
root 0.75831 18.2046 6.41549 -1.58842 3.01325 -0.190765
lowerback 8.3638 3.23014 -1.91551
upperback 3.15891 4.11838 -1.05105
thorax -1.46598 2.0513 -0.401853
lowerneck -7.80138 -6.6413 -6.60005
upperneck 5.07605 -9.28001 14.0531
head 3.78481 -4.1633 4.80373
rclavicle 1.39646e-014 1.03368e-014
rhumerus 3.60552 -0.891231 -56.4493
rradius 83.3582
rwrist 36.2239
rhand -59.8338 -1.17343
rfingers 7.12502
rthumb -31.9936 -28.3807
lclavicle 1.39646e-014 1.03368e-014
lhumerus -29.7328 19.9231 64.5456
lradius 26.8608
lwrist -6.01297
lhand -27.9346 26.337
lfingers 7.12502
lthumb -1.32273 56.3126
rfemur -11.6785 12.5214 7.34863
rtibia 37.9641
rfoot -14.8272 -20.9314
rtoes -19.234
lfemur -12.56 -5.43874 -13.588
ltibia 36.77
lfoot -18.7974 8.46075
ltoes -13.5295
3727
root 0.698599 18.2 6.41517 -1.52305 3.0872 -0.194638
lowerback 8.44615 3.0521 -1.77955
upperback 3.14094 3.89181 -0.968223
thorax -1.52502 1.93877 -0.375689
lowerneck -7.65531 -6.55683 -6.56171
upperneck 4.76546 -9.13838 14.0467
head 3.65057 -4.1091 4.81332
rclavicle 5.52621e-014 -2.78299e-015
rhumerus 3.11516 -1.78754 -55.8751
rradius 83.4029
rwrist 36.3263
rhand -60.2968 -1.90126
rfingers 7.12502
rthumb -32.4343 -29.0191
lclavicle 5.52621e-014 -2.78299e-015
lhumerus -29.812 19.7167 64.4248
lradius 27.8497
lwrist -5.38218
lhand -27.8207 25.3428
lfingers 7.12502
lthumb -1.21271 55.3191
rfemur -11.6641 12.4394 7.58649
rtibia 37.8884
rfoot -15.2309 -21.0968
rtoes -19.004
lfemur -12.5765 -5.49023 -13.3582
ltibia 36.592
lfoot -18.6565 8.46903
ltoes -13.8257
3728
root 0.640322 18.203 6.41354 -1.38283 3.17599 -0.0904374
lowerback 8.50297 2.88015 -1.7407
upperback 3.1156 3.66565 -0.919455
thorax -1.5816 1.82616 -0.328932
lowerneck -7.58488 -6.50776 -6.40451
upperneck 4.53835 -9.05145 13.8895
head 3.5466 -4.07972 4.74965
rclavicle 1.11816e-014 1.19271e-015
rhumerus 2.74026 -2.66511 -55.2836
rradius 83.3756
rwrist 36.0499
rhand -59.8166 -0.57325
rfingers 7.12502
rthumb -31.9772 -27.7838
lclavicle 1.11816e-014 1.19271e-015
lhumerus -29.6538 19.6092 64.3983
lradius 28.7381
lwrist -5.01901
lhand -27.584 24.7641
lfingers 7.12502
lthumb -0.984147 54.7416
rfemur -11.7303 12.2982 7.66596
rtibia 37.8083
rfoot -15.5032 -21.1773
rtoes -18.9982
lfemur -12.6636 -5.65297 -13.2611
ltibia 36.3911
lfoot -18.5485 8.52816
ltoes -14.1563
3729
root 0.58057 18.2092 6.41099 -1.25664 3.18037 -0.098522
lowerback 8.58876 2.72235 -1.61478
upperback 3.09946 3.46574 -0.82991
thorax -1.64221 1.72676 -0.292121
lowerneck -7.68565 -6.51912 -6.41657
upperneck 4.54994 -9.05891 13.831
head 3.56517 -4.08174 4.72995
rclavicle 7.40473e-015 5.96354e-015
rhumerus 2.39524 -3.50273 -54.7459
rradius 83.3036
rwrist 35.7632
rhand -59.2657 0.414266
rfingers 7.12502
rthumb -31.4525 -26.9
lclavicle 7.40473e-015 5.96354e-015
lhumerus -29.1387 19.8902 64.3766
lradius 29.2246
lwrist -5.15491
lhand -27.3976 25.1302
lfingers 7.12502
lthumb -0.804142 55.1084
rfemur -11.8 12.2492 7.886
rtibia 37.7214
rfoot -15.7666 -21.3111
rtoes -18.7567
lfemur -12.7108 -5.75552 -13.0273
ltibia 36.1693
lfoot -18.4348 8.58349
ltoes -14.2284
3730
root 0.51904 18.2165 6.40879 -1.14441 3.20666 -0.217343
lowerback 8.66728 2.55293 -1.387
upperback 3.09483 3.26026 -0.713273
thorax -1.68305 1.62472 -0.282482
lowerneck -7.80578 -6.5338 -6.4839
upperneck 4.5197 -9.06586 13.846
head 3.58084 -4.08228 4.74175
rclavicle 1.94312e-014 -1.78906e-014
rhumerus 1.86598 -4.1415 -54.1019
rradius 82.9925
rwrist 35.9381
rhand -59.5611 -1.2102
rfingers 7.12502
rthumb -31.7339 -28.4691
lclavicle 1.94312e-014 -1.78906e-014
lhumerus -28.5746 20.1993 64.3508
lradius 29.6157
lwrist -5.36393
lhand -27.3724 25.68
lfingers 7.12502
lthumb -0.779757 55.6583
rfemur -11.8913 12.2323 8.25669
rtibia 37.6283
rfoot -15.7956 -21.6348
rtoes -18.8523
lfemur -12.7573 -5.84446 -12.6604
ltibia 35.9575
lfoot -18.2901 8.62371
ltoes -14.323
3731
root 0.460662 18.2242 6.41096 -1.00219 3.32728 -0.254081
lowerback 8.70036 2.34615 -1.17933
upperback 3.06698 3.00377 -0.640805
thorax -1.72187 1.4974 -0.300182
lowerneck -7.88216 -6.50088 -6.37441
upperneck 4.37063 -9.00416 13.7325
head 3.53199 -4.05623 4.69269
rclavicle -5.46658e-016 -2.5842e-015
rhumerus 1.30439 -4.72663 -53.4686
rradius 82.5241
rwrist 36.1485
rhand -59.9698 -2.32027
rfingers 7.12502
rthumb -32.1231 -29.5014
lclavicle -5.46658e-016 -2.5842e-015
lhumerus -28.3257 20.2226 64.3064
lradius 30.2783
lwrist -5.3859
lhand -27.6372 26.6551
lfingers 7.12502
lthumb -1.03552 56.6324
rfemur -11.949 12.0918 8.49714
rtibia 37.5433
rfoot -15.9937 -21.7512
rtoes -18.4934
lfemur -12.8106 -5.99763 -12.4126
ltibia 35.7286
lfoot -18.1736 8.64336
ltoes -14.2368
3732
root 0.39847 18.2288 6.40702 -0.828653 3.36813 -0.560333
lowerback 8.7935 2.16795 -0.758936
upperback 2.96748 2.80448 -0.455662
thorax -1.86464 1.39866 -0.330816
lowerneck -7.84366 -6.45143 -6.3596
upperneck 4.16268 -8.91371 13.6923
head 3.4516 -4.0211 4.68769
rclavicle 3.50855e-014 8.15017e-015
rhumerus 0.803671 -5.39059 -52.8133
rradius 82.3957
rwrist 35.9682
rhand -59.9853 -2.16782
rfingers 7.12502
rthumb -32.1379 -29.346
lclavicle 3.50855e-014 8.15017e-015
lhumerus -28.2994 19.9871 64.347
lradius 31.1226
lwrist -5.08565
lhand -27.9262 27.4859
lfingers 7.12502
lthumb -1.31464 57.4616
rfemur -12.1116 12.1048 9.04675
rtibia 37.4963
rfoot -16.3443 -21.8518
rtoes -17.7621
lfemur -12.9427 -6.01556 -11.815
ltibia 35.4357
lfoot -17.9386 8.62389
ltoes -14.3601
3733
root 0.332532 18.2376 6.39546 -0.695932 3.43161 -0.643066
lowerback 8.99861 1.97808 -0.642086
upperback 2.91264 2.56389 -0.288458
thorax -2.0368 1.27838 -0.208344
lowerneck -7.87804 -6.3995 -6.48199
upperneck 3.96722 -8.81101 13.7314
head 3.39604 -3.97603 4.72817
rclavicle 2.60656e-014 -2.3059e-014
rhumerus 0.444619 -6.01239 -52.1817
rradius 82.3856
rwrist 35.6105
rhand -60.0937 -2.58238
rfingers 7.12502
rthumb -32.241 -29.7397
lclavicle 2.60656e-014 -2.3059e-014
lhumerus -28.235 19.8145 64.4544
lradius 31.9701
lwrist -4.56724
lhand -28.1284 27.8091
lfingers 7.12502
lthumb -1.50991 57.7835
rfemur -12.2993 12.2547 9.3847
rtibia 37.4821
rfoot -16.6069 -22.1547
rtoes -17.2828
lfemur -13.0193 -6.1068 -11.4553
ltibia 35.0593
lfoot -17.5853 8.64998
ltoes -14.465
